{"title":"BBC Match of the Day 2016-03-12 HDTV 1080p 6ch x265 [S-Less]","uid":13867367,"size":363490921,"categoryP":"video","categoryS":"hd___tv_shows","magnet":"?xt=urn:btih:9d8e9bd19aa9351f6bfb53349cd01767bd217b1c&amp;dn=BBC+Match+of+the+Day+2016-03-12+HDTV+1080p+6ch+x265+%5BS-Less%5D&amp;tr=udp%3A%2F%2Ftracker.leechers-paradise.org%3A6969&amp;tr=udp%3A%2F%2Fzer0day.ch%3A1337&amp;tr=udp%3A%2F%2Fopen.demonii.com%3A1337&amp;tr=udp%3A%2F%2Ftracker.coppersurfer.tk%3A6969&amp;tr=udp%3A%2F%2Fexodus.desync.com%3A6969","seeders":0,"leechers":1,"uploader":"soulessness","files":1,"time":1458080255,"description":"BBC.MOTD.2016-03-12.HDTV.1080p.6ch.x265.[S-Less]\r\n\r\nHighlights of the day's Premier League action, which includes the game between Stoke City and Southampton at the Britannia Stadium. The Potters won 1-0 when the sides met on the south coast in November and will be chasing a third successive win against the Saints. The lunchtime kick-off sees title Manchester City travel to relegation-threatened Norwich City, while Bournemouth meet Swansea.\r\n\r\nMediaInfo:\r\n\r\nVideo\r\nID : 1\r\nFormat : HEVC\r\nFormat/Info : High Efficiency Video Coding\r\nFormat profile : Main   @Main\r\nCodec ID : V_MPEGH/ISO/HEVC\r\nDuration : 44mn 4s\r\nBit rate : 906 Kbps\r\nWidth : 1 920 pixels\r\nHeight : 1 080 pixels\r\nDisplay aspect ratio : 16:9\r\nFrame rate mode : Constant\r\nFrame rate : 25.000 fps\r\nColor space : YUV\r\nChroma subsampling : 4:2:0\r\nBit depth : 10 bits\r\nBits/(Pixel*Frame) : 0.017\r\nStream size : 286 MiB (82%)\r\nWriting library : x265 1.8+2-55a4a9b920ff:[Windows][GCC 5.2.0][64 bit] 10bit\r\nDefault : Yes\r\nForced : No\r\n\r\nAudio\r\nID : 2\r\nFormat : AAC\r\nFormat/Info : Advanced Audio Codec\r\nFormat profile : HE-AAC / LC\r\nCodec ID : A_AAC\r\nDuration : 44mn 4s\r\nBit rate : 192 Kbps\r\nChannel(s) : 6 channels\r\nChannel positions : Front: L C R, Side: L R, LFE\r\nSampling rate : 48.0 KHz / 24.0 KHz\r\nFrame rate : 23.438 fps (1024 spf)\r\nCompression mode : Lossy\r\nDelay relative to video : 31ms\r\nStream size : 60.5 MiB (17%)\r\nLanguage : English\r\nDefault : Yes\r\nForced : No","torrent":{"xt":"urn:btih:9d8e9bd19aa9351f6bfb53349cd01767bd217b1c","amp;dn":"BBC+Match+of+the+Day+2016-03-12+HDTV+1080p+6ch+x265+%5BS-Less%5D","amp;tr":["udp%3A%2F%2Ftracker.leechers-paradise.org%3A6969","udp%3A%2F%2Fzer0day.ch%3A1337","udp%3A%2F%2Fopen.demonii.com%3A1337","udp%3A%2F%2Ftracker.coppersurfer.tk%3A6969","udp%3A%2F%2Fexodus.desync.com%3A6969"],"infoHash":"9d8e9bd19aa9351f6bfb53349cd01767bd217b1c","infoHashBuffer":{"type":"Buffer","data":[157,142,155,209,154,169,53,31,107,251,83,52,156,208,23,103,189,33,123,28]},"announce":[],"urlList":[]}}